<svg width="1287" height="1233" viewBox="0 0 1287 1233" fill="none" xmlns="http://www.w3.org/2000/svg">
<path d="M579.832 52.0061C605.875 -0.764353 681.124 -0.764459 707.168 52.006L847.253 335.848C857.595 356.804 877.586 371.328 900.711 374.688L1213.95 420.205C1272.19 428.667 1295.44 500.233 1253.3 541.309L1026.64 762.249C1009.9 778.561 1002.27 802.062 1006.22 825.094L1059.73 1137.07C1069.67 1195.07 1008.8 1239.3 956.709 1211.91L676.539 1064.62C655.855 1053.75 631.145 1053.75 610.461 1064.62L330.292 1211.91C278.204 1239.3 217.326 1195.07 227.274 1137.07L280.782 825.094C284.732 802.062 277.096 778.561 260.362 762.25L33.7006 541.309C-8.43907 500.233 14.8141 428.667 73.0497 420.205L386.288 374.688C409.414 371.328 429.405 356.804 439.747 335.849L579.832 52.0061Z" fill="url(#paint0_linear_101_14)" stroke="#373737" stroke-width="24"/>
<defs>
<linearGradient id="paint0_linear_101_14" x1="644" y1="391.5" x2="643.5" y2="1422" gradientUnits="userSpaceOnUse">
<stop stop-color="#FFB800"/>
<stop offset="1" stop-color="#FF0000"/>
</linearGradient>
</defs>
</svg>
